<svg width="238" height="321" viewBox="0 0 238 321" fill="none" xmlns="http://www.w3.org/2000/svg">
<path d="M236.721 136.89C237.286 142.056 237.668 147.302 237.859 152.616L235.361 152.705C235.453 155.288 235.5 157.886 235.5 160.5C235.5 163.114 235.453 165.712 235.361 168.295L237.859 168.384C237.668 173.698 237.286 178.944 236.721 184.11L234.236 183.839C233.665 189.064 232.905 194.205 231.966 199.249L234.424 199.707C233.45 204.938 232.286 210.067 230.942 215.08L228.528 214.433C227.166 219.51 225.619 224.466 223.896 229.284L226.25 230.126C224.455 235.146 222.472 240.022 220.313 244.735L218.04 243.694C215.85 248.477 213.476 253.089 210.934 257.511L213.102 258.757C210.441 263.385 207.597 267.812 204.583 272.018L202.551 270.562C199.494 274.83 196.262 278.862 192.872 282.637L194.733 284.307C191.163 288.285 187.417 291.987 183.515 295.389L181.872 293.504C177.935 296.937 173.84 300.053 169.606 302.83L170.978 304.921C166.531 307.838 161.929 310.392 157.194 312.555L156.155 310.281C151.47 312.421 146.656 314.165 141.734 315.488L142.383 317.903C137.323 319.262 132.148 320.189 126.879 320.654L126.66 318.163C124.128 318.387 121.574 318.5 119 318.5C116.426 318.5 113.872 318.387 111.34 318.163L111.121 320.654C105.852 320.189 100.677 319.262 95.6171 317.903L96.2659 315.488C91.3438 314.165 86.5297 312.421 81.8449 310.281L80.8062 312.555C76.0708 310.392 71.4692 307.838 67.0224 304.921L68.3935 302.83C64.1599 300.053 60.0648 296.937 56.1279 293.504L54.485 295.389C50.5827 291.987 46.8375 288.285 43.2672 284.308L45.1276 282.638C41.7383 278.862 38.5065 274.83 35.4488 270.562L33.4166 272.018C30.4034 267.812 27.5591 263.385 24.8983 258.757L27.0658 257.511C24.5238 253.089 22.1505 248.477 19.9597 243.694L17.6867 244.735C15.5279 240.022 13.5449 235.146 11.7499 230.126L14.1039 229.284C12.3813 224.466 10.8336 219.51 9.47236 214.433L7.05762 215.08C5.71371 210.067 4.54964 204.938 3.57594 199.707L6.03372 199.249C5.09479 194.205 4.33485 189.064 3.76371 183.839L1.27851 184.11C0.713843 178.944 0.331659 173.698 0.141076 168.384L2.63947 168.295C2.54685 165.712 2.5 163.114 2.5 160.5C2.5 157.886 2.54685 155.288 2.63947 152.705L0.141076 152.616C0.331659 147.302 0.713843 142.056 1.27851 136.89L3.76371 137.161C4.33485 131.936 5.09479 126.795 6.03372 121.751L3.57593 121.293C4.54964 116.062 5.7137 110.933 7.05762 105.92L9.47236 106.567C10.8336 101.49 12.3813 96.534 14.1039 91.7158L11.7499 90.8742C13.5448 85.8536 15.5279 80.9784 17.6867 76.2652L19.9596 77.3062C22.1505 72.523 24.5238 67.9115 27.0658 63.4894L24.8983 62.2435C27.5591 57.6147 30.4034 53.1876 33.4165 48.982L35.4488 50.438C38.5065 46.1703 41.7383 42.1382 45.1275 38.3625L43.2671 36.6925C46.8375 32.7151 50.5827 29.0133 54.485 25.6111L56.1279 27.4955C60.0648 24.0632 64.1599 20.9465 68.3935 18.1696L67.0224 16.0792C71.4691 13.1625 76.0708 10.6084 80.8062 8.44533L81.8449 10.7193C86.5297 8.57944 91.3438 6.83453 96.2659 5.51177L95.6171 3.09743C100.677 1.73776 105.852 0.810758 111.121 0.346238L111.34 2.83658C113.872 2.61337 116.426 2.5 119 2.5C121.574 2.5 124.128 2.61337 126.66 2.83658L126.879 0.346241C132.148 0.810762 137.323 1.73776 142.383 3.09744L141.734 5.51178C146.656 6.83453 151.47 8.57945 156.155 10.7193L157.194 8.44534C161.929 10.6084 166.531 13.1625 170.978 16.0792L169.606 18.1696C173.84 20.9465 177.935 24.0632 181.872 27.4955L183.515 25.6111C187.417 29.0133 191.163 32.7152 194.733 36.6925L192.872 38.3625C196.262 42.1382 199.494 46.1703 202.551 50.438L204.583 48.982C207.597 53.1876 210.441 57.6147 213.102 62.2435L210.934 63.4894C213.476 67.9115 215.849 72.523 218.04 77.3062L220.313 76.2651C222.472 80.9784 224.455 85.8536 226.25 90.8741L223.896 91.7158C225.619 96.534 227.166 101.49 228.528 106.567L230.942 105.92C232.286 110.933 233.45 116.062 234.424 121.293L231.966 121.751C232.905 126.795 233.665 131.936 234.236 137.161L236.721 136.89Z" stroke="#C8FA60" stroke-width="5" stroke-linejoin="round" stroke-dasharray="15 15"/>
</svg>
